<svg id="Calque_1" data-name="Calque 1" xmlns="http://www.w3.org/2000/svg" viewBox="0 0 605.9 593.7">
  <defs>
    <style>
      .cls-1 {
        fill: #1ddcb3;
      }
    </style>
  </defs>
  <g>
    <path class="cls-1" d="M380.1,104.4c-3.5,2-7.1,8.5-7.1,12.9,0,7.3,7.4,27,15.4,40.7,12.4,21.6,17.7,27.9,26,31.4,4.8,2,8,2,13.8,0s11.4-7.4,14.3-16.5c6-19.2,3.7-33.3-7.2-42.9-7.6-6.7-24.3-19-29.5-21.6C396.9,103.9,384.4,101.9,380.1,104.4Z" transform="translate(-97.1 -103.3)"/>
    <path class="cls-1" d="M511.5,178.5c-15.1,1.9-21.4,3.1-32.7,6.6-5.3,1.6-10.9,2.9-12.6,2.9s-7.4,1.4-12.8,3.1-13,3.7-16.9,4.4c-11.5,2.3-24.6,5.3-32,7.5s-21.6,5.2-50.5,11c-5.2,1-14.9,2.6-21.5,3.5s-13.6,2-15.5,2.5a163.1,163.1,0,0,1-16.3,2c-14.4,1.1-27.5,4-31.5,6.9a55.8,55.8,0,0,0-6.1,5.5c-2.8,2.9-3.5,4.5-3.9,8.8-.5,7,2.3,11.3,9.7,15,5.4,2.7,5.8,2.8,23.3,2.8,37.1,0,50.5-1.6,137.2-16.5,11.5-2,21-3.4,21.2-3.2s-3.2,18.9-6.1,30.7c-6.3,25.1-23,71.2-26.4,72.9-.9.5-5.4,1.4-10.1,2L386.5,350c-19.4,2.9-48.2,6.7-64.4,8.5-7.9.9-18.4,2.5-23.3,3.6s-12.3,2.4-16.6,3c-11.7,1.5-56.2,9.7-73.2,13.4a299.1,299.1,0,0,1-42.5,5.5c-25.9,1.6-33.8,3.1-45.5,9a92,92,0,0,1-10.6,4.4,22.7,22.7,0,0,0-8.9,5.6c-3.7,3.8-4,4.5-4.3,10.9-.7,11.1,3.5,17.1,15.4,22.1,6.2,2.6,8.5,3,16,3s30.3-3.2,57.9-8.5c15-2.8,30.9-5.7,44.5-8,5.2-.9,15.4-2.9,22.5-4.5l23-5.1c5.5-1.1,14.7-3.2,20.5-4.5,21.2-5,60.1-12.4,86-16.4,34.7-5.4,49.1-7,101.5-11.5,22-1.9,73.5-2.3,83.5-.6,3.6.5,13,1.5,21,2.1l34.5,2.6c49,3.8,62.2,2.8,72.1-5.2,5.9-4.7,7.4-8.6,7.4-18.7,0-7.9-.2-8.8-3.2-13.3-6.1-9.1-16-13.4-36.3-15.9-6.6-.9-18.3-2.7-26-4-18.8-3.4-33.7-4.5-60-4.5a442.6,442.6,0,0,0-68,5L487,331.5c-5.2.8-12.8,2.2-16.8,3.1s-7.6,1.4-7.8,1.1.7-3.3,2.2-6.8c5.6-13.4,10.6-22.2,15.9-27.7,7.7-8.1,13.1-15.6,17.3-24.1,3.1-6.3,3.7-8.5,3.7-14s-1.5-10.9-8.6-24.7l-2.7-5.2,14.2-2.7,24.1-4.6c5.5-1.1,15-3.5,21.1-5.4,13.8-4.3,18.1-8,20.8-17.4,1.5-5.5,1.5-6.3.1-9.8s-4-6.9-9-9.8C553.1,178.6,530,176.3,511.5,178.5Z" transform="translate(-97.1 -103.3)"/>
    <path class="cls-1" d="M296.1,273c-18.6,2.1-9,23.8,27.7,62.8,11.8,12.5,17,15.8,22.8,14.7,7.7-1.4,14.2-10.9,12.8-18.6s-10.3-23.7-17.9-32.8C324.3,278.6,311.4,271.2,296.1,273Z" transform="translate(-97.1 -103.3)"/>
    <path class="cls-1" d="M463.5,429.1c-12.7,2.4-22.9,3.8-28.1,3.9-23.9.1-80.2,6.7-101.9,12-4.4,1.1-12.7,2.9-18.5,3.9-19.4,3.6-37.5,8.1-40,10a24,24,0,0,0-5,6.2c-4,7-3.4,21.9,1.7,45.9,1.4,6.3,1.6,14.6,1.4,54-.3,75.6,3,99.9,15.1,112,7.5,7.5,13.3,7.7,32.7,1,7.9-2.7,16.9-5.4,20-6,12.5-2.2,29.1-4,37.6-4,10.1,0,43.9,2.2,68,4.5,8.8.8,19.2,1.5,23,1.5h7l4,9.2c4.6,10.7,8,13.8,15,13.8s17.2-7.7,20.2-14.9,6.9-28.3,10.3-56.1c1-8.6,3.5-27.9,7.5-57.5.8-6.1,2.1-18.2,3-27,2.2-22,4.4-40.4,6.1-50.5,2.2-13.1,1.8-18.3-2-29.6S534.9,446,530.3,441s-15.2-12.7-20-14.4C502.6,423.9,485.3,424.8,463.5,429.1Zm13,38.8c2.6.5,3,1.2,4.2,6.6.8,3.7,1.5,18.6,1.9,39.5.5,28,.3,38.7-1.5,65-1.1,17.3-2.3,36.3-2.7,42.2l-.7,10.8h-2.6a57.7,57.7,0,0,1-9.6-1.9c-18.9-5.2-27.5-6.3-46.2-5.8-16,.3-62.9,5.2-83.8,8.7l-6.7,1c-.3,0-2.5-3.4-4.8-7.7-5.3-9.6-6.9-18.1-7-37V575.1l3.1,1.1c10.1,3.5,72.8-3.8,101.3-11.8,11.1-3.1,15.7-5.8,19-10.8,4.6-7,2.7-13.6-5.5-19.5-5.5-4-8.7-4.5-18.9-2.6-22.4,4-69.9,10.5-87.5,12-3.8.3-8.4.8-10,1.1l-3,.5V482.5l2.5-.3c1.4-.2,10.2-1.8,19.5-3.7a483.7,483.7,0,0,1,54-7.9l24.5-2.4C425.9,467.2,472.1,466.9,476.5,467.9Z" transform="translate(-97.1 -103.3)"/>
  </g>
</svg>
